# xmcd
#
# Track frame offsets: 
#        150
#        18970
#        32376
#        52687
#        65570
#        78526
#        89111
#        102171
#        116545
#        128357
#        141548
#        156440
#        168289
#        183462
#        197362
#
# Disc length: 2789 seconds
#
# Revision: 0
# Processed by: cddbd v1.5.2PL0 Copyright (c) Steve Scherf et al.
# Submitted via: ExactAudioCopyFreeDBPlugin 1.0
#
DISCID=bf0ae30f
DTITLE=Hullabalues - Rockin' The Blues With...
DYEAR=2007
DGENRE=Blues
TTITLE0=Honeydripper
TTITLE1=Tip On In
TTITLE2=Cat Squirrel
TTITLE3=Shame, Shame, Shame
TTITLE4=Talk To Me Baby
TTITLE5=East
TTITLE6=I Just Keep Lovin' Her
TTITLE7=Ride and Roll
TTITLE8=I Can't Stop Lovin'
TTITLE9=We're Gonna Rock
TTITLE10=Walkin' By Myself
TTITLE11=Crazy Mixed Up World
TTITLE12=You Know It Ain't Right
TTITLE13=I'm A Lover Not A Fighter
TTITLE14=Good Lovin' 
EXTD=
EXTT0=
EXTT1=
EXTT2=
EXTT3=
EXTT4=
EXTT5=
EXTT6=
EXTT7=
EXTT8=
EXTT9=
EXTT10=
EXTT11=
EXTT12=
EXTT13=
EXTT14=
PLAYORDER=
